<?xml version="1.0" standalone="no"?>
<!DOCTYPE svg PUBLIC "-//W3C//DTD SVG 20010904//EN"
 "http://www.w3.org/TR/2001/REC-SVG-20010904/DTD/svg10.dtd">
<svg version="1.0" xmlns="http://www.w3.org/2000/svg"
 width="500.000000pt" height="500.000000pt" viewBox="0 0 500.000000 500.000000"
 preserveAspectRatio="xMidYMid meet">

<g transform="translate(0.000000,500.000000) scale(0.100000,-0.100000)"
fill="#000000" stroke="none">
<path d="M2303 4955 c-202 -37 -285 -90 -337 -215 -100 -243 -129 -317 -159
-400 l-35 -95 -53 -2 c-128 -6 -352 -25 -449 -39 -445 -64 -582 -213 -374
-403 32 -30 83 -70 113 -89 68 -43 320 -156 465 -207 101 -36 111 -42 148 -89
40 -50 40 -51 34 -113 -4 -35 -11 -74 -15 -86 -13 -35 -41 -230 -41 -287 0
-63 -17 -65 -56 -7 l-29 42 -5 -66 c-5 -60 -8 -68 -41 -97 l-37 -32 -16 25
c-9 14 -34 34 -55 45 -56 28 -55 42 2 65 59 24 89 59 90 108 1 45 -23 73 -83
99 -25 11 -59 28 -76 39 l-32 19 29 83 c32 92 35 132 15 181 -20 48 -61 76
-110 76 -72 0 -127 -52 -191 -180 -20 -41 -39 -77 -41 -79 -2 -3 -21 15 -42
40 -42 50 -258 282 -344 371 -47 48 -62 58 -91 58 -51 0 -88 -51 -65 -93 12
-23 130 -162 158 -187 38 -34 230 -249 230 -258 0 -18 -152 -152 -209 -185
-49 -29 -58 -39 -72 -82 -12 -35 -26 -55 -47 -68 -19 -11 -43 -42 -62 -81 -18
-35 -43 -69 -56 -76 -25 -14 -57 -75 -94 -181 -17 -47 -32 -72 -57 -90 -82
-60 -128 -170 -128 -304 1 -111 25 -177 90 -252 25 -28 45 -53 45 -56 0 -3
-22 -10 -49 -17 -61 -14 -111 -62 -107 -102 3 -28 21 -56 44 -71 9 -6 12 -73
12 -276 0 -243 2 -269 18 -283 9 -9 64 -36 122 -61 58 -25 218 -94 355 -155
138 -60 268 -116 290 -125 22 -8 120 -51 218 -96 99 -45 181 -81 184 -81 3 0
109 -47 237 -104 127 -57 260 -116 296 -131 36 -15 119 -52 185 -82 66 -30
147 -68 180 -83 33 -15 71 -31 85 -35 13 -4 64 -27 113 -51 88 -43 90 -43 126
-28 20 8 45 21 57 29 12 7 50 25 85 40 35 15 150 67 254 115 192 89 398 183
690 315 88 40 232 104 320 144 253 114 587 263 750 335 l150 66 5 269 c5 266
5 269 28 287 13 11 27 37 32 59 10 39 9 41 -31 78 l-42 37 31 58 c16 31 38 90
47 130 15 63 16 80 5 120 -6 26 -13 79 -14 117 -1 39 -8 80 -14 92 -7 12 -12
38 -12 59 0 29 -8 44 -40 76 -28 28 -40 49 -40 69 0 56 -18 74 -166 160 -89
51 -144 89 -144 98 1 9 7 42 15 74 l13 58 -46 59 c-26 33 -92 112 -147 176
-143 167 -136 150 -79 174 74 32 183 109 199 140 20 38 19 94 -2 137 -19 41
-120 128 -214 184 -78 46 -264 124 -444 184 l-130 44 -7 195 c-12 357 -27 404
-163 507 -160 122 -377 203 -648 243 -127 19 -421 20 -524 1z m592 -54 c305
-52 642 -226 675 -351 23 -87 41 -545 20 -524 -5 5 -10 25 -12 44 -3 33 -9 38
-113 98 -60 34 -107 62 -103 62 11 0 142 -62 179 -86 43 -27 57 -31 41 -11 -6
7 -12 33 -14 57 l-3 45 -83 44 c-93 50 -106 68 -16 23 93 -46 104 -48 104 -17
0 19 -10 32 -44 53 -81 50 -84 53 -53 42 15 -5 41 -17 57 -25 30 -15 30 -15
30 12 0 24 -9 34 -55 61 -69 42 -71 51 -4 16 28 -14 53 -23 55 -21 13 13 -11
57 -37 67 -15 7 -34 19 -41 28 -8 10 1 8 25 -7 21 -13 40 -21 43 -18 3 3 0 23
-5 45 -8 28 -28 56 -70 95 -74 69 -271 168 -380 191 -83 18 -104 16 -39 -3 51
-15 78 -37 78 -63 0 -22 6 -22 -109 2 -127 27 -146 24 -38 -6 68 -18 96 -31
117 -54 19 -20 30 -26 33 -18 3 8 6 5 6 -6 1 -13 -4 -16 -16 -11 -24 9 -182
35 -208 34 -11 -1 7 -7 40 -13 110 -23 145 -36 139 -51 -4 -10 1 -12 18 -9 13
2 18 2 11 -2 -7 -3 -9 -13 -6 -22 4 -13 3 -14 -5 -3 -5 7 -14 11 -20 8 -5 -4
-40 0 -78 8 -88 19 -114 18 -49 -1 133 -39 154 -47 149 -55 -3 -5 5 -9 18 -9
17 0 19 -3 9 -9 -8 -5 -11 -16 -8 -24 4 -11 0 -13 -13 -10 -12 3 -17 11 -13
21 4 14 3 14 -5 3 -9 -12 -27 -11 -125 9 -63 12 -123 20 -133 17 -17 -4 -16
-5 3 -6 37 -2 233 -51 271 -67 l37 -16 -30 -9 c-20 -6 -52 -4 -97 6 -37 8 -77
14 -90 14 -20 -1 -21 -2 -3 -6 66 -15 152 -49 163 -65 7 -10 18 -15 24 -12 7
5 8 2 3 -5 -5 -9 -22 -11 -54 -7 -44 5 -44 5 -11 -5 19 -6 52 -15 73 -20 20
-5 37 -13 37 -18 0 -4 -48 5 -107 21 -263 69 -406 88 -695 95 -243 6 -355 -3
-440 -33 -23 -8 -43 -12 -45 -10 -3 2 28 87 68 188 59 148 80 190 110 219 44
43 123 72 254 94 124 20 418 13 580 -14z m-235 -496 c63 -9 121 -21 130 -26
11 -7 4 -9 -25 -5 -143 19 -353 27 -550 21 -238 -7 -302 -16 -337 -46 l-23
-19 25 4 c14 3 63 13 110 23 67 14 127 18 290 17 113 -1 228 -6 255 -11 35 -6
-33 -9 -225 -9 -281 -1 -359 -8 -428 -41 l-37 -18 35 -6 c20 -4 26 -7 15 -9
-17 -2 -16 -3 5 -9 22 -6 18 -8 -23 -15 -27 -4 -50 -6 -52 -4 -2 2 6 31 18 66
18 52 27 64 52 71 32 10 151 29 225 35 93 8 430 -4 540 -19z m495 -24 c-3 -6
-11 -11 -16 -11 -5 0 -4 6 3 14 14 16 24 13 13 -3z m-318 -17 c-3 -3 -12 -4
-19 -1 -8 3 -5 6 6 6 11 1 17 -2 13 -5z m-417 -74 c38 -5 -4 -8 -140 -9 -107
0 -226 -3 -265 -5 -68 -5 -67 -4 20 8 100 15 301 18 385 6z m118 -17 c-10 -2
-28 -2 -40 0 -13 2 -5 4 17 4 22 1 32 -1 23 -4z m-130 -94 c523 -37 1047 -144
1482 -300 397 -142 598 -309 509 -423 -24 -31 -193 -116 -229 -116 -16 0 3 13
54 35 192 84 217 137 111 240 -89 88 -264 178 -480 250 -234 77 -362 116 -397
119 -18 2 -44 8 -58 13 -14 6 -33 9 -43 7 -10 -1 -15 1 -12 5 7 13 -48 21 -62
9 -9 -7 -13 -7 -13 2 0 8 -8 10 -22 7 -13 -3 -39 -2 -58 3 l-35 8 35 2 35 2
-30 7 c-16 4 -37 3 -46 -3 -9 -5 -25 -6 -35 -2 -11 5 -35 10 -54 11 -19 2
-107 13 -195 25 -394 52 -613 64 -1027 57 -346 -6 -419 -12 -628 -53 -165 -32
-229 -55 -275 -98 -68 -64 -38 -141 85 -219 65 -40 204 -111 240 -122 39 -11
219 -89 215 -93 -2 -2 -32 8 -67 23 -34 14 -98 39 -140 55 -194 73 -365 187
-409 272 -26 50 -24 81 8 118 63 75 314 141 623 163 116 9 787 6 918 -4z
m-1278 -149 c-66 -36 -115 -88 -128 -138 l-10 -37 -1 49 c-1 43 3 52 33 81 18
17 58 41 87 53 76 29 83 27 19 -8z m166 -53 c-10 -7 -32 -23 -49 -37 -27 -22
-29 -22 -19 -4 6 12 26 28 44 37 38 19 51 21 24 4z m593 4 c10 -7 2 -15 -30
-34 -72 -41 -139 -60 -224 -63 -44 -1 -91 -6 -105 -12 -39 -15 -63 -47 -55
-74 5 -18 4 -20 -4 -8 -18 25 -13 78 10 101 39 39 159 75 299 89 41 4 80 8 85
8 6 1 16 -2 24 -7z m108 -20 c-20 -15 -51 -34 -68 -41 -29 -12 -30 -15 -13
-22 16 -7 15 -8 -5 -4 -25 5 -73 -12 -66 -24 3 -4 -16 -6 -40 -4 -25 1 -43 -1
-41 -5 3 -4 -9 -5 -27 -3 l-32 5 35 12 c19 7 72 31 118 54 70 35 126 56 166
60 5 1 -7 -12 -27 -28z m-860 -9 c-14 -15 -31 -45 -36 -67 -8 -34 -9 -36 -10
-12 -1 34 14 66 43 89 32 26 33 22 3 -10z m248 -22 c-10 -11 -23 -20 -28 -20
-6 0 0 9 13 20 13 11 25 20 28 20 3 0 -3 -9 -13 -20z m595 -5 c0 -2 -10 -9
-22 -15 -22 -11 -22 -10 -4 4 21 17 26 19 26 11z m940 -49 c7 -9 18 -16 24
-16 6 0 3 5 -6 11 -10 5 -18 15 -18 21 0 7 4 7 13 0 17 -14 187 -112 187 -107
0 2 -23 22 -51 44 -59 47 -53 49 50 21 102 -29 415 -182 479 -235 26 -22 54
-69 46 -78 -3 -3 -31 9 -62 27 -75 42 -176 82 -232 91 -25 4 -71 16 -104 27
-32 11 -70 21 -84 21 -43 0 -113 37 -194 104 -78 65 -122 117 -80 94 10 -5 24
-17 32 -25z m-1717 -46 c7 -9 2 -5 -10 8 -13 13 -23 31 -22 40 0 11 4 9 10 -8
6 -13 15 -32 22 -40z m107 35 c0 -9 19 -36 41 -60 47 -51 39 -62 -8 -12 -34
34 -59 87 -43 87 6 0 10 -7 10 -15z m1100 5 c275 -15 333 -42 445 -200 89
-126 116 -207 84 -246 -9 -11 -9 -18 -1 -26 6 -6 8 -17 5 -26 -4 -10 -2 -13 5
-8 7 4 10 -1 7 -14 -2 -11 0 -20 5 -20 4 0 7 -16 6 -35 -2 -19 0 -32 4 -30 4
2 8 -28 9 -67 1 -39 4 -75 7 -80 3 -4 0 -8 -6 -8 -7 0 -9 -7 -6 -15 3 -9 -1
-18 -10 -22 -8 -3 -13 -12 -10 -19 3 -8 0 -11 -8 -8 -9 4 -13 -3 -10 -21 2
-19 -3 -29 -19 -35 -12 -5 -16 -9 -9 -9 6 -1 12 -5 12 -11 0 -5 -6 -7 -14 -4
-8 3 -17 -2 -20 -13 -8 -25 -88 -68 -161 -87 -65 -17 -170 -15 -188 3 -6 6
-18 11 -26 11 -20 0 -121 51 -146 73 -11 10 -38 28 -60 39 l-40 20 31 -33 c18
-19 37 -44 43 -55 10 -21 7 -22 -62 -32 -40 -6 -93 -20 -117 -31 -25 -11 -63
-22 -85 -25 -37 -5 -38 -5 -9 4 35 11 59 34 50 48 -3 5 -33 12 -66 15 -33 4
-74 14 -90 22 -38 19 -41 2 -8 -40 l21 -28 -21 12 c-26 14 -52 61 -52 95 0 13
15 42 34 65 40 48 89 176 106 281 7 41 14 83 15 92 6 30 -23 119 -51 155 -39
51 -113 83 -196 83 -37 0 -78 -4 -92 -10 -34 -12 -34 3 -2 51 14 20 27 51 31
70 9 50 22 68 34 50 12 -19 74 -10 193 29 51 17 129 34 173 39 44 5 82 9 85
10 3 0 84 -4 180 -9z m548 -158 c15 -13 36 -28 47 -34 18 -10 18 -8 -2 14 -34
36 -28 42 14 14 20 -14 40 -23 44 -20 5 3 21 -2 36 -10 16 -8 84 -28 153 -45
128 -31 214 -69 281 -123 71 -57 86 -108 32 -108 -23 0 -24 -2 -12 -17 13 -15
12 -16 -11 -9 -14 5 -61 10 -105 12 l-80 3 80 -17 c44 -10 92 -26 108 -36 27
-18 36 -36 17 -36 -5 0 -10 4 -10 8 0 21 -58 32 -166 32 -88 0 -127 5 -170 20
-55 19 -143 77 -144 94 0 5 -8 15 -17 23 -12 10 -13 12 -3 8 10 -4 9 -2 -2 8
-20 16 -25 32 -7 21 8 -5 8 -1 0 14 -18 33 -14 33 35 1 25 -17 47 -29 50 -26
2 2 -6 11 -19 20 -46 30 -165 153 -201 207 -44 66 -48 98 -6 44 17 -22 43 -49
58 -62z m-1367 30 c-16 -30 -13 -39 4 -16 14 19 14 19 15 -1 0 -17 2 -17 10
-5 7 11 10 6 10 -19 0 -33 1 -34 15 -15 19 25 19 22 -5 -61 -11 -38 -20 -90
-20 -115 l-1 -45 -14 34 c-8 18 -15 53 -15 76 0 24 -5 45 -11 47 -20 7 -23 95
-4 124 19 29 32 26 16 -4z m-942 -207 c74 -78 139 -152 145 -164 7 -12 15 -19
19 -16 4 3 5 2 2 -2 -3 -4 18 -31 47 -60 50 -51 51 -53 26 -53 -21 0 -41 17
-90 72 -89 102 -310 332 -322 337 -13 4 26 -39 150 -169 50 -52 109 -115 130
-140 22 -24 49 -56 62 -70 12 -14 22 -28 22 -32 0 -7 -143 145 -301 320 -65
72 -78 93 -70 120 1 1 11 2 24 1 15 -1 64 -46 156 -144z m1281 44 c44 -24 90
-79 90 -107 0 -12 -3 -12 -15 -2 -12 10 -15 10 -15 0 0 -7 -9 -2 -21 11 -11
13 -18 18 -14 12 7 -15 -9 -17 -33 -3 -27 15 -152 50 -179 50 -13 0 -22 -4
-19 -9 7 -11 -34 -2 -52 12 -10 8 -9 14 5 30 28 31 53 37 134 34 57 -3 86 -9
119 -28z m-380 -49 c8 -5 11 -10 5 -10 -5 0 -17 5 -25 10 -8 5 -10 10 -5 10 6
0 17 -5 25 -10z m146 -35 c3 -8 14 -17 25 -20 31 -10 41 -39 24 -72 -8 -15
-15 -36 -15 -47 0 -16 2 -15 19 5 20 24 20 24 5 -28 -8 -29 -14 -69 -12 -90 3
-33 8 -40 52 -62 30 -15 71 -27 108 -29 47 -4 58 -8 54 -19 -3 -8 -6 -21 -6
-28 0 -7 -22 -36 -50 -65 -27 -29 -50 -58 -50 -66 0 -19 -49 -38 -64 -25 -7 6
-29 12 -50 14 -30 4 -36 1 -31 -11 5 -13 3 -13 -11 -1 -48 39 -56 139 -23 258
21 75 22 147 3 264 -6 37 10 54 22 22z m2368 -104 c5 -9 41 -54 80 -99 39 -46
98 -117 131 -157 33 -40 91 -107 129 -149 l69 -77 -12 -69 c-15 -84 -37 -96
-26 -15 l6 55 -95 -50 c-52 -27 -105 -50 -118 -49 -19 0 -15 4 17 20 22 10 44
20 50 22 11 4 -25 92 -68 164 -28 47 -33 50 -55 42 -14 -5 -27 -7 -30 -5 -2 3
7 8 22 12 14 3 26 9 26 12 0 3 -27 57 -60 119 -33 63 -60 117 -60 121 0 15
154 -244 206 -348 51 -100 44 -96 108 -60 65 37 68 25 -37 147 -186 220 -256
302 -286 343 -19 25 -46 56 -60 70 -21 20 -24 21 -17 5 16 -39 96 -399 96
-432 0 0 10 1 23 4 21 5 21 5 3 -9 -18 -14 -18 -20 -7 -79 23 -121 31 -141 49
-134 9 4 37 13 62 20 25 7 54 16 65 20 11 5 17 5 14 1 -9 -10 -172 -66 -177
-61 -3 2 -13 42 -22 87 -10 46 -18 74 -19 63 0 -18 5 -48 24 -132 5 -22 2 -23
-47 -23 -48 0 -144 11 -223 25 -21 4 -26 3 -15 -4 8 -5 59 -15 113 -22 97 -13
98 -14 77 -31 -24 -20 -98 -24 -162 -9 -28 7 -35 6 -32 -4 5 -13 57 -25 112
-25 33 0 33 -1 31 -40 -2 -21 0 -42 4 -46 4 -4 7 -16 7 -26 0 -10 6 -17 13
-15 6 1 11 -6 9 -15 -2 -13 2 -16 15 -12 12 5 11 1 -5 -11 -18 -13 -26 -14
-37 -5 -8 7 -15 18 -15 24 0 6 7 3 14 -6 7 -10 17 -18 21 -18 5 0 0 9 -11 21
-17 19 -19 19 -31 3 -11 -15 -13 -15 -13 -3 0 9 -7 16 -15 16 -8 0 -12 -4 -9
-9 3 -4 -4 -8 -16 -8 -13 0 -19 4 -14 12 5 8 0 9 -14 6 -17 -5 -22 -2 -23 15
-2 38 -17 -21 -19 -73 -2 -49 -3 -48 -31 50 -7 25 -14 38 -16 28 -5 -22 -103
-31 -120 -11 -8 11 -13 11 -18 3 -11 -17 -25 8 -25 45 -1 24 -2 27 -10 13 -11
-18 -1 -109 30 -268 10 -52 31 -158 45 -236 l27 -141 86 18 c48 10 94 18 102
18 23 -1 -76 -27 -132 -34 -50 -7 -50 -7 -46 -41 3 -24 -1 -39 -13 -50 -16
-14 -18 -11 -32 58 -51 247 -111 517 -115 514 -2 -3 12 -80 32 -173 32 -151
64 -313 80 -400 3 -18 2 -34 -2 -37 -5 -3 -18 41 -29 97 -11 56 -55 272 -98
480 l-77 378 88 117 c49 64 107 145 131 179 23 34 75 105 115 157 40 53 97
128 127 167 l53 71 47 -53 c25 -28 50 -59 55 -68z m-2815 55 c20 -22 21 -24 5
-20 -14 4 -23 -3 -32 -26 -8 -16 -18 -28 -23 -25 -5 4 -6 0 -3 -8 3 -8 -12
-34 -32 -58 -57 -69 -67 -75 -113 -71 -36 4 -41 7 -35 24 12 38 76 144 107
176 40 41 92 44 126 8z m1864 -60 c48 -38 95 -64 152 -82 l40 -13 -50 1 c-27
0 -65 7 -84 14 -49 20 -24 -7 29 -31 91 -41 3 -43 -93 -2 -54 22 -74 52 -84
122 l-6 46 28 -11 c15 -6 46 -25 68 -44z m-143 22 c0 -4 -7 -8 -15 -8 -8 0
-15 4 -15 8 0 5 7 9 15 9 8 0 15 -4 15 -9z m-1086 -44 c21 -21 20 -47 -2 -75
-14 -17 -24 -20 -38 -14 -10 5 -28 9 -39 9 -14 1 -21 9 -23 28 -6 53 65 89
102 52z m102 -143 c-3 -19 -13 -42 -22 -50 -15 -15 -16 -14 -10 4 5 13 0 24
-16 37 l-23 19 29 -7 29 -7 -5 54 -5 54 14 -35 c9 -20 13 -49 9 -69z m1521 34
c54 -36 71 -149 31 -201 -13 -15 -18 -25 -12 -21 6 3 4 -9 -4 -28 -9 -19 -19
-32 -24 -29 -4 3 -8 1 -8 -4 0 -10 -20 -34 -79 -98 -37 -40 -39 -40 -66 -27
-25 14 -30 13 -58 -7 -29 -22 -31 -22 -44 -5 -7 11 -13 24 -13 30 0 25 34 55
73 66 56 14 83 33 102 70 15 27 15 35 2 74 -14 40 -14 44 1 50 27 10 54 -32
50 -77 -2 -21 -2 -38 0 -38 12 0 42 93 42 132 0 38 -5 50 -26 67 -19 15 -34
19 -53 15 -72 -18 -111 -69 -132 -173 -10 -54 -34 -100 -45 -88 -2 2 1 30 6
63 6 32 10 74 10 92 0 19 7 48 15 65 15 31 79 80 120 90 31 8 85 0 112 -18z
m-1707 -15 c0 -5 -5 -10 -11 -10 -5 0 -7 5 -4 10 3 6 8 10 11 10 2 0 4 -4 4
-10z m-695 -60 c76 -19 139 -43 205 -78 52 -27 96 -54 97 -58 2 -5 -7 -21 -20
-36 l-22 -27 -57 24 c-32 13 -58 20 -58 15 0 -10 30 -29 75 -47 30 -11 30 -11
-16 -12 -35 -1 -63 7 -105 30 -43 24 -87 36 -164 48 -104 17 -105 16 -160 -6
-30 -12 -73 -32 -95 -43 l-40 -22 65 9 c118 15 212 10 240 -11 41 -33 159
-172 187 -222 24 -43 25 -47 8 -56 -23 -13 -51 -42 -58 -59 -6 -15 -16 -5
-110 108 -73 86 -101 97 -227 88 -56 -3 -115 -12 -132 -19 l-29 -13 23 -15
c13 -9 81 -37 150 -63 70 -26 135 -56 144 -67 10 -10 28 -48 40 -85 25 -74 18
-109 -27 -140 -23 -17 -24 -16 -9 2 11 15 8 14 -11 -3 l-26 -23 -15 23 c-8 13
-18 32 -22 44 -11 36 -47 60 -166 108 -63 26 -125 51 -137 56 -48 20 -27 -10
97 -132 149 -147 157 -166 90 -211 -39 -27 -77 -22 -94 11 -15 29 -58 66 -132
113 -23 15 -51 37 -62 49 l-21 23 6 -38 6 -39 -36 23 c-40 25 -46 17 -21 -30
8 -17 13 -33 11 -36 -3 -2 -27 -10 -54 -17 l-48 -13 68 -13 c48 -10 66 -18 63
-27 -3 -7 -1 -13 4 -13 6 0 10 -9 10 -20 0 -20 34 -45 49 -36 4 3 8 -1 8 -9 0
-8 -4 -12 -9 -9 -4 3 -8 0 -8 -6 0 -6 -5 -8 -11 -4 -8 4 -8 1 -1 -12 11 -21 5
-47 -9 -39 -5 4 -6 0 -3 -8 9 -26 -22 -40 -73 -32 -43 6 -46 5 -33 -10 12 -15
11 -16 -16 -9 -16 4 -36 12 -44 18 -13 10 -13 9 -1 -6 7 -10 10 -18 6 -18 -4
0 -1 -8 6 -17 11 -14 7 -13 -19 3 -19 12 -42 34 -53 50 -14 22 -19 25 -19 11
0 -10 4 -26 9 -35 5 -9 12 -39 16 -67 8 -50 8 -50 -13 -32 -41 37 -66 115 -67
207 0 76 5 101 49 230 69 208 85 235 143 246 23 4 31 9 22 15 -10 6 -10 15 1
48 17 53 44 81 78 81 25 0 27 3 28 46 2 54 29 88 83 102 20 5 35 13 34 19 -1
6 14 23 35 38 20 15 73 66 118 112 l81 85 44 -7 c24 -4 94 -20 154 -35z m2047
-7 c35 -39 58 -75 58 -92 0 -8 -14 5 -30 27 -36 50 -50 56 -21 9 24 -39 39
-141 23 -151 -12 -7 -52 14 -89 48 -33 29 -28 9 8 -32 39 -44 70 -115 75 -169
4 -47 0 -51 -28 -26 -30 27 -30 9 1 -25 24 -26 26 -32 12 -35 -12 -3 -10 -6 9
-14 78 -33 78 -33 7 -29 -44 2 -73 9 -85 20 -10 9 -22 16 -27 16 -4 0 -14 8
-22 18 -13 15 -13 15 -3 -5 8 -17 8 -23 0 -23 -26 0 50 -74 105 -101 38 -19
49 -28 30 -24 -16 4 -52 10 -79 15 -39 6 -57 16 -83 44 -36 39 -46 45 -37 21
11 -27 -5 -15 -22 16 -12 25 -14 37 -5 56 13 29 14 102 2 122 -7 10 5 41 37
100 25 47 48 88 51 91 7 6 40 95 48 128 7 30 34 28 65 -5z m-1472 -255 c8 -13
13 -27 12 -32 -2 -5 4 -6 13 -3 8 4 15 2 15 -2 0 -11 -55 -31 -86 -31 -29 0
-30 5 -4 37 11 14 20 32 20 39 0 21 13 17 30 -8z m216 -49 c10 -12 43 -35 72
-51 56 -32 59 -36 40 -58 -7 -8 -3 -6 10 4 28 24 29 5 2 -38 -21 -35 -44 -50
-105 -65 -50 -14 -68 -14 -60 -1 3 6 13 10 22 10 18 0 106 40 101 46 -2 2 -22
-3 -43 -11 -22 -8 -60 -14 -84 -15 -54 0 -123 19 -114 33 4 6 0 8 -10 4 -11
-4 -17 -1 -17 7 0 8 6 16 13 19 6 2 -4 7 -23 11 -19 5 -59 21 -89 38 l-53 30
22 -32 c12 -17 45 -49 72 -71 50 -39 50 -51 0 -25 -39 20 -78 65 -96 110 -23
55 -20 61 15 32 44 -38 104 -35 194 9 83 40 106 42 131 14z m569 -24 c32 -9
104 -34 159 -57 125 -50 203 -59 259 -30 42 22 43 22 22 -17 -21 -42 -90 -98
-143 -115 -60 -21 -202 -21 -271 0 -29 8 -59 13 -67 10 -7 -3 -16 -1 -19 5 -4
5 -11 7 -16 4 -5 -4 -9 -1 -9 5 0 6 -5 8 -11 4 -7 -4 0 -14 18 -26 l28 -20
-30 7 c-16 4 -41 8 -55 10 -27 2 -62 18 -95 43 -11 8 -3 -1 17 -21 21 -21 36
-37 34 -37 -2 0 -28 11 -59 25 -72 33 -107 69 -107 109 0 41 7 49 57 75 84 42
188 52 288 26z m445 -19 c0 -11 -65 -46 -85 -46 -18 0 1 23 33 39 45 24 52 25
52 7z m427 -2 c6 -16 -19 -44 -39 -44 -10 0 -11 44 -1 53 12 13 34 7 40 -9z
m-1994 -25 c-18 -5 -39 -19 -48 -31 -12 -18 -15 -19 -15 -6 0 22 38 48 70 47
23 -1 22 -2 -7 -10z m190 -8 c5 -21 -10 -31 -46 -31 -20 0 -20 0 3 25 28 30
36 31 43 6z m-143 -21 c0 -5 -16 -10 -35 -10 -30 0 -37 -5 -49 -32 -12 -28
-14 -30 -15 -10 -1 31 33 62 69 62 17 0 30 -4 30 -10z m710 -40 c0 -8 9 -32
20 -52 23 -44 3 -43 -23 1 -18 31 -25 109 -7 81 5 -8 10 -22 10 -30z m-545 1
c7 -12 -15 -61 -28 -61 -5 0 -7 14 -5 32 4 26 3 29 -7 14 -10 -13 -14 -14 -24
-3 -6 8 -8 17 -4 20 10 10 61 8 68 -2z m2926 -15 c130 -69 245 -138 257 -153
21 -29 15 -78 -10 -91 l-23 -11 23 0 c36 -1 82 -30 92 -57 13 -34 12 -74 -1
-74 -7 0 0 -11 15 -25 14 -13 26 -34 26 -47 0 -39 -12 -68 -26 -68 -18 0 -18
-16 0 -23 30 -12 49 -68 43 -128 -6 -64 -53 -172 -90 -207 -39 -36 -39 -13 0
63 50 102 55 115 38 108 -8 -3 -15 -10 -15 -16 0 -7 -4 -7 -12 1 -7 7 -19 12
-27 12 -14 0 -14 -2 -1 -11 12 -9 11 -9 -5 -4 -11 4 -28 9 -37 12 -28 8 -120
-27 -173 -67 -27 -21 -61 -40 -75 -42 -14 -1 -28 -7 -32 -13 -5 -6 -8 -6 -8 1
0 6 -13 9 -32 6 -18 -2 -50 -4 -70 -5 -22 -1 -35 -5 -32 -12 3 -5 -2 -1 -10 9
-24 30 -4 50 97 104 99 53 298 174 294 178 -3 4 -131 -28 -227 -55 -70 -21
-213 -53 -245 -55 -31 -3 -38 5 -18 21 17 14 17 14 0 9 -50 -16 -98 -18 -114
-5 -15 13 -15 12 -5 -8 7 -12 8 -24 3 -27 -10 -6 -31 37 -31 63 0 10 6 23 13
29 21 18 362 102 476 117 58 8 117 18 131 21 l25 6 -23 9 c-13 5 -21 13 -17
19 6 10 0 12 -95 30 -105 20 -235 7 -442 -44 -101 -25 -173 -31 -162 -15 3 5
-1 6 -9 3 -30 -11 -60 70 -38 104 5 8 51 23 104 33 52 11 133 30 179 44 204
61 203 61 303 31 88 -25 179 -35 159 -17 -5 5 -62 36 -128 70 -109 56 -124 61
-184 61 -35 0 -104 -5 -152 -12 -98 -13 -132 -7 -166 27 -40 40 -28 98 26 118
8 3 99 6 201 6 177 1 188 0 230 -23z m-2996 -53 c75 -102 195 -286 195 -300 0
-32 -65 2 -138 71 -29 28 -58 60 -63 71 -6 11 8 0 31 -25 23 -25 32 -31 20
-15 -12 17 -49 59 -84 95 -88 92 -116 129 -116 151 0 16 7 19 53 19 l52 0 50
-67z m115 23 c0 -3 -4 -8 -10 -11 -5 -3 -10 -1 -10 4 0 6 5 11 10 11 6 0 10
-2 10 -4z m1357 -43 c17 -27 37 -65 44 -86 l13 -38 -189 -184 c-105 -102 -194
-185 -200 -185 -5 -1 -28 -39 -49 -85 -21 -46 -43 -82 -49 -78 -9 5 -4 58 9
100 3 10 -4 1 -16 -21 l-22 -38 -25 23 -25 24 -41 -48 c-23 -26 -46 -47 -50
-47 -4 0 -19 24 -33 53 -22 45 -25 48 -23 22 0 -16 0 -59 0 -95 -2 -63 -2 -64
-19 -44 -9 12 -22 30 -28 40 -9 15 -10 8 -6 -35 6 -62 -3 -62 -48 1 l-29 40 6
-35 c3 -19 1 -43 -5 -53 -9 -16 -12 -15 -36 9 -34 34 -54 82 -71 167 l-13 65
-2 -55 c-3 -105 -9 -104 -88 6 -111 153 -105 148 -141 130 -16 -9 -37 -26 -45
-38 -14 -20 -16 -20 -16 -4 0 10 -9 26 -20 36 -23 20 -40 61 -40 96 0 17 5 24
20 24 11 0 20 2 20 4 0 19 -36 97 -65 140 -19 29 -35 60 -35 70 0 9 -4 16 -9
16 -17 0 -19 28 -7 76 10 40 16 48 32 46 10 -2 21 -8 22 -13 2 -5 15 -9 28 -9
14 0 22 -4 19 -10 -4 -6 7 -10 24 -10 17 0 31 -4 31 -10 0 -5 9 -10 21 -10 11
0 17 -4 14 -10 -3 -5 0 -7 9 -4 9 3 17 -2 21 -15 3 -12 11 -21 16 -21 5 0 9
-9 9 -19 0 -10 7 -22 16 -25 8 -3 12 -10 9 -16 -3 -5 0 -10 7 -10 8 0 30 -18
51 -40 l36 -40 34 16 c32 15 37 15 70 -1 25 -12 48 -15 79 -10 37 6 47 3 68
-17 14 -13 32 -34 41 -48 l16 -25 0 27 c0 16 7 35 14 44 20 24 116 67 134 60
10 -3 15 -1 13 7 -2 6 1 13 5 14 26 8 67 35 67 45 0 6 11 8 30 4 19 -3 29 -2
25 4 -4 6 11 10 38 10 64 0 160 20 174 37 6 8 22 13 35 11 17 -2 23 2 23 15 0
10 8 24 18 31 9 7 17 16 17 19 0 6 32 47 36 47 0 0 14 -21 31 -47z m487 -37
c2 -24 6 -49 10 -54 3 -6 0 -12 -6 -15 -10 -3 -9 -8 2 -22 14 -17 13 -17 -5
-8 -36 20 -95 107 -81 121 3 3 6 0 6 -7 0 -7 4 -10 10 -6 5 3 16 -8 25 -25 8
-16 17 -30 18 -30 1 0 1 28 -1 62 -2 48 0 59 8 46 6 -10 12 -37 14 -62z
m-2152 37 c30 -29 36 -64 15 -81 -10 -9 -22 -5 -49 13 -45 31 -58 63 -32 82
25 18 34 17 66 -14z m284 -31 c-12 -11 -18 7 -10 30 l8 23 4 -23 c2 -13 1 -26
-2 -30z m529 -8 c33 -9 76 -20 95 -25 28 -7 23 -8 -26 -5 -33 2 -81 13 -105
24 -54 25 -42 27 36 6z m-572 -543 c-13 -86 -24 -163 -27 -171 -10 -39 -4 49
14 175 l19 139 -46 51 c-25 27 -51 55 -57 60 -6 6 -58 58 -115 118 -57 59
-100 99 -96 90 3 -10 19 -76 33 -148 15 -71 30 -131 34 -133 4 -2 5 -17 1 -33
-3 -18 -1 -29 6 -29 7 0 8 -11 4 -32 -5 -24 -3 -29 7 -23 10 6 11 2 7 -16 -12
-49 7 -52 61 -8 l51 42 -45 82 c-60 112 -56 120 8 13 l51 -88 34 21 c58 36 36
12 -63 -67 l-96 -78 6 -40 c13 -91 27 -259 22 -263 -7 -8 -14 29 -27 150 -17
164 -9 154 -105 144 l-81 -9 -15 -96 -15 -97 3 79 c1 43 5 81 8 84 19 19 0 24
-66 18 -39 -3 -73 -8 -75 -10 -2 -2 3 -17 10 -35 7 -17 17 -28 21 -24 4 4 4 1
1 -7 -3 -9 15 -70 40 -137 25 -68 45 -127 45 -133 0 -24 -24 6 -52 64 -16 33
-27 54 -25 46 27 -97 -2 -34 -53 115 -21 61 -48 132 -59 158 -12 27 -21 55
-21 64 0 20 141 245 285 457 l27 39 181 -188 182 -188 -22 -156z m495 515 c59
-32 141 -49 208 -43 82 6 144 -2 144 -18 0 -7 -21 -23 -47 -36 -65 -32 -217
-34 -277 -5 -37 19 -116 92 -116 108 0 13 60 9 88 -6z m-57 -70 c21 -33 36
-62 33 -65 -7 -7 -74 61 -90 91 -39 74 7 53 57 -26z m-551 -16 c-56 -37 -94
-18 -59 29 l23 31 26 -25 c21 -22 23 -27 10 -35z m1746 18 c56 -59 217 -288
298 -425 32 -54 35 -64 25 -90 -6 -15 -61 -172 -120 -348 -147 -430 -138 -386
25 136 20 64 40 138 45 165 l7 50 -45 -14 c-25 -8 -53 -16 -61 -19 -8 -3 -69
-25 -135 -48 l-120 -42 -31 -249 c-17 -137 -34 -275 -38 -306 -4 -32 -12 -58
-18 -58 -7 0 -9 18 -5 53 3 28 17 157 32 285 30 268 40 230 -81 307 -39 25
-74 45 -77 45 -17 0 -4 -17 24 -34 44 -26 139 -125 139 -145 0 -22 -19 -179
-26 -212 -4 -23 -14 -29 -65 -42 -32 -8 -59 -11 -59 -6 0 5 7 9 15 9 22 0 18
18 -10 52 -14 16 -46 74 -72 129 -37 78 -51 99 -67 99 -12 0 -26 4 -32 8 -6 4
-20 59 -32 123 -26 136 -26 142 -9 133 6 -4 2 4 -10 16 l-22 24 171 165 c95
91 198 192 230 224 33 31 65 57 72 57 6 0 30 -19 52 -42z m932 -24 c-5 -28
-28 -29 -28 -1 0 13 3 27 7 31 10 10 25 -10 21 -30z m-1698 -14 c-33 -26 -52
-25 -21 0 13 11 28 20 35 20 6 0 0 -9 -14 -20z m1070 -35 c1 -5 6 -15 11 -21
7 -9 39 -141 39 -163 0 -5 -30 0 -67 10 -69 19 -97 42 -109 86 -7 28 13 93 32
100 24 9 65 -7 73 -29 l8 -22 5 22 c5 19 0 24 -50 38 -45 13 -53 18 -37 24 21
8 90 -25 95 -45z m-3260 -98 c-11 -25 -24 -65 -29 -89 -5 -24 -12 -52 -16 -62
-6 -13 -5 -17 2 -13 7 4 21 -24 37 -74 14 -44 40 -100 56 -124 17 -24 26 -46
21 -49 -14 -9 -60 55 -53 72 4 11 1 13 -8 7 -9 -5 -11 -4 -6 3 4 7 3 12 -2 12
-12 0 -42 73 -42 102 0 15 -3 19 -10 12 -7 -7 -7 -29 1 -67 5 -32 7 -62 3 -69
-4 -7 -3 -8 4 -4 11 7 16 -4 13 -30 0 -5 22 -38 49 -72 57 -71 47 -84 -14 -19
-104 109 -129 261 -67 402 20 46 71 119 78 112 2 -2 -6 -25 -17 -50z m1330 43
c0 -5 -9 -10 -21 -10 -11 0 -17 5 -14 10 3 6 13 10 21 10 8 0 14 -4 14 -10z
m50 -56 c0 -14 -4 -23 -9 -20 -5 3 -7 15 -4 26 7 28 13 25 13 -6z m-140 -49
c13 -14 21 -25 18 -25 -2 0 -15 11 -28 25 -13 14 -21 25 -18 25 2 0 15 -11 28
-25z m-550 -74 c-24 -38 -38 -51 -56 -51 -30 0 -31 13 -1 33 13 8 34 31 47 50
39 57 48 26 10 -32z m2537 53 c-3 -3 -12 -4 -19 -1 -8 3 -5 6 6 6 11 1 17 -2
13 -5z m33 -14 c-10 -6 -11 -10 -2 -10 6 0 12 -8 12 -17 0 -15 2 -16 10 -3 15
24 20 6 14 -43 -7 -51 -24 -64 -24 -19 0 19 -3 23 -9 13 -5 -7 -11 -9 -14 -5
-2 5 -14 26 -25 46 l-21 37 22 4 c12 2 29 5 37 5 13 2 13 1 0 -8z m-2738 -143
c56 -73 59 -80 55 -125 l-3 -47 -2 52 c-1 28 -6 55 -12 58 -5 3 -35 40 -66 81
-31 41 -58 73 -60 72 -1 -2 5 -33 15 -70 10 -37 15 -70 11 -75 -8 -8 1 -82 10
-86 13 -5 80 44 74 55 -4 7 -3 8 4 4 7 -4 11 -24 11 -44 -1 -23 -3 -29 -6 -14
-6 28 -11 28 -52 -7 l-34 -28 12 -107 c7 -59 10 -110 7 -113 -3 -4 -6 8 -6 25
0 18 -4 32 -8 32 -5 0 -7 15 -5 33 l3 32 -14 -35 c-11 -31 -11 -36 3 -43 11
-5 7 -6 -11 -4 -26 4 -26 4 -21 -50 3 -29 3 -53 0 -53 -2 0 -32 74 -66 164
-69 187 -70 157 6 319 l46 97 25 -22 c13 -13 51 -58 84 -101z m3358 93 c0 -5
-5 -10 -11 -10 -5 0 -7 5 -4 10 3 6 8 10 11 10 2 0 4 -4 4 -10z m-149 -77
c-21 -66 -41 -109 -41 -88 0 18 52 166 57 161 3 -2 -4 -35 -16 -73z m-2044
-15 c28 -40 92 -129 142 -196 97 -132 98 -136 49 -177 l-23 -20 23 26 c12 14
22 30 22 37 0 7 -194 281 -234 329 0 1 1 -40 3 -90 2 -51 7 -82 10 -69 3 13 6
-32 7 -100 0 -68 4 -154 8 -191 l8 -68 56 53 57 53 -23 48 c-13 27 -22 50 -20
53 2 2 16 -21 30 -50 l26 -53 -69 -69 -69 -68 -2 -156 -2 -155 -6 155 c-4 85
-8 156 -9 158 0 1 -8 2 -16 2 -9 0 -64 16 -124 35 -59 19 -110 35 -113 35 -3
0 -3 -11 0 -25 2 -14 8 -23 12 -20 5 3 6 -3 4 -13 -3 -9 11 -80 31 -156 33
-130 37 -163 16 -140 -4 5 -36 83 -71 174 -34 91 -80 206 -101 257 -22 51 -39
97 -39 103 0 10 349 368 361 369 3 1 28 -32 56 -71z m1656 -65 c-4 -137 -17
-134 -21 5 -2 94 0 114 10 104 9 -9 12 -42 11 -109z m-2735 47 c6 0 9 -7 5
-16 -5 -14 -11 -11 -35 16 -34 39 -37 52 -5 22 13 -12 28 -22 35 -22z m24 -86
c-4 -22 -6 -24 -14 -10 -9 16 -3 36 11 36 5 0 6 -12 3 -26z m1729 -119 c37
-49 105 -136 149 -192 l81 -101 -15 -79 -15 -78 6 65 c3 36 6 68 7 72 0 4 -38
58 -87 120 -48 62 -117 153 -153 201 -36 49 -67 87 -70 85 -2 -2 3 -71 11
-154 7 -82 17 -213 21 -291 l7 -142 58 45 c33 25 59 49 59 53 0 5 -17 63 -39
130 -21 66 -35 119 -31 116 9 -6 34 -67 60 -150 12 -38 25 -73 29 -77 3 -4 30
11 59 33 28 22 52 35 52 30 0 -14 -26 -37 -152 -138 l-108 -86 0 -260 c0 -143
-3 -258 -6 -254 -4 3 -9 120 -13 258 l-6 253 -80 28 c-89 31 -98 33 -93 17 2
-5 30 -21 63 -34 32 -13 64 -32 69 -42 16 -27 26 -64 15 -57 -5 3 -9 12 -9 19
0 10 -6 12 -17 8 -15 -6 -16 -4 -5 9 9 11 10 18 2 23 -9 6 -14 -14 -11 -42 1
-9 -5 -9 -25 2 -29 15 -64 3 -64 -22 0 -7 -4 -13 -10 -13 -5 0 -10 -12 -11
-27 0 -17 -3 -22 -6 -13 -9 22 -33 44 -33 30 0 -14 -23 8 -33 30 -7 16 -2 -42
6 -75 3 -11 6 -24 6 -28 1 -5 5 -6 10 -2 5 3 12 1 16 -5 3 -5 0 -10 -8 -10
-12 0 -10 -19 10 -106 24 -102 24 -140 0 -99 -17 28 -32 79 -77 255 -42 163
-68 252 -69 235 -1 -6 24 -111 55 -234 30 -122 54 -227 52 -233 -4 -12 -10 10
-78 277 -22 88 -50 197 -62 242 l-22 82 27 26 c14 15 41 47 59 71 18 25 74 96
123 157 50 62 108 136 129 165 l39 53 29 -28 c17 -15 61 -68 99 -118z m-1691
98 c0 -7 -4 -13 -10 -13 -5 0 -10 12 -10 28 0 21 2 24 10 12 5 -8 10 -21 10
-27z m1790 -50 c6 -38 14 -78 17 -90 3 -13 1 -23 -4 -23 -8 0 -33 128 -33 168
0 31 9 6 20 -55z m1422 -126 c-2 -203 -10 -299 -21 -277 -13 25 0 469 13 464
8 -3 10 -58 8 -187z m-3200 114 c22 -8 31 -22 44 -68 9 -32 19 -63 21 -69 2
-7 -20 -8 -73 -2 -43 5 -79 9 -80 11 -1 1 1 35 3 75 6 73 6 74 32 69 14 -3 38
-10 53 -16z m2899 -96 c22 -54 39 -101 39 -106 0 -5 -16 -17 -35 -26 -19 -9
-35 -21 -35 -27 -1 -6 -14 -38 -31 -71 -30 -62 -30 -54 2 28 l19 47 -50 0 -50
0 0 -44 c0 -24 -7 -59 -15 -77 -15 -33 -16 -32 -9 44 4 54 2 82 -6 92 -21 25
-30 17 -30 -29 0 -23 -3 -72 -7 -107 -7 -59 -8 -53 -13 71 -3 74 -4 140 -2
145 7 17 174 167 179 161 3 -3 23 -48 44 -101z m-3034 -7 c-2 -18 -4 -6 -4 27
0 33 2 48 4 33 2 -15 2 -42 0 -60z m-215 1 c32 -93 33 -154 2 -128 -11 9 -14
9 -14 -1 0 -10 -3 -10 -15 0 -20 17 -19 0 3 -25 21 -25 59 -54 49 -38 -4 6 11
2 34 -9 23 -11 58 -22 77 -25 20 -4 45 -14 55 -24 33 -31 79 -32 158 -4 93 32
99 38 68 71 l-24 27 25 -7 c14 -3 37 -9 53 -12 15 -4 27 -10 27 -15 0 -5 6 -6
13 -3 14 5 67 -132 67 -173 0 -39 -27 -26 -34 16 -3 22 -10 42 -15 45 -4 3 -5
-13 0 -37 12 -61 11 -70 -5 -64 -9 4 -13 1 -10 -6 6 -16 103 -62 183 -87 l63
-20 76 30 c41 17 91 33 111 36 20 3 46 12 59 20 25 16 40 11 70 -25 14 -18 16
-45 2 -36 -5 3 -10 2 -10 -3 0 -6 -9 -8 -20 -5 -14 4 -20 0 -20 -10 0 -17 32
-39 64 -44 11 -2 24 -7 30 -12 6 -5 29 -14 51 -20 22 -7 47 -15 55 -18 22 -9
34 -10 45 -4 5 2 23 6 40 8 16 2 53 11 80 22 69 25 119 41 132 41 6 0 16 -12
22 -27 10 -27 11 -27 6 7 -5 39 39 -88 56 -160 8 -36 7 -46 -4 -55 -8 -6 -17
-19 -20 -30 -4 -16 -5 -14 -6 7 0 14 5 29 12 31 7 3 6 6 -5 6 -11 1 -18 12
-21 34 -3 25 -4 21 -6 -18 l-3 -50 -11 42 c-7 23 -15 45 -19 49 -14 13 -8 -43
7 -72 8 -16 15 -36 15 -45 0 -8 16 -31 37 -50 20 -18 32 -27 28 -20 -5 9 3 7
21 -6 16 -11 34 -22 39 -23 6 -2 18 -5 28 -8 9 -2 17 -9 17 -15 0 -6 3 -7 6
-4 4 4 19 0 33 -7 58 -32 121 -57 152 -62 67 -12 67 -12 194 54 48 24 73 34
101 37 11 2 38 13 60 24 21 12 43 21 47 21 11 0 148 69 166 83 7 6 20 12 28
13 8 2 18 6 21 10 4 4 -2 4 -13 1 -17 -6 -16 -3 6 16 14 13 24 28 21 35 -2 7
2 12 10 12 11 0 11 2 0 9 -17 11 36 31 82 31 36 0 122 22 154 39 16 9 21 18
17 32 -4 12 1 29 14 45 l21 27 1 -24 c0 -16 7 -7 20 29 12 29 23 52 25 50 2
-2 0 -27 -5 -56 -9 -59 1 -67 24 -21 9 17 19 29 22 26 2 -3 -1 -15 -7 -27 -16
-30 -11 -32 35 -10 47 21 122 83 90 74 -19 -5 -19 -5 2 13 l21 20 -129 48
c-71 27 -129 50 -129 53 0 3 34 2 75 -2 51 -5 75 -3 75 4 0 6 11 3 26 -6 17
-12 21 -19 13 -25 -15 -9 133 -23 165 -15 23 6 24 4 19 -37 -2 -23 -1 -37 4
-30 6 8 23 9 61 2 58 -11 137 1 182 26 l25 14 -25 1 c-14 1 -19 4 -12 7 18 7
15 23 -5 23 -10 0 -36 11 -57 24 l-39 23 79 8 c43 5 97 9 119 10 22 1 69 5
104 10 40 4 61 4 58 -2 -4 -6 -47 -27 -97 -47 -49 -21 -90 -40 -90 -43 0 -7
17 -2 105 31 38 14 72 26 75 26 8 -1 -202 -100 -212 -100 -5 0 -88 -36 -186
-81 -97 -45 -215 -97 -262 -116 -106 -43 -718 -312 -940 -413 -58 -26 -109
-56 -115 -66 -10 -20 -55 -29 -55 -12 0 6 -7 8 -15 4 -8 -3 -15 -2 -15 2 0 9
-78 42 -145 62 -22 7 -55 21 -72 32 -18 11 -33 17 -33 14 0 -4 -11 1 -25 10
-14 9 -25 14 -25 10 0 -3 -21 6 -46 19 -26 14 -50 22 -54 20 -5 -3 -10 -2 -12
2 -3 9 -90 53 -103 53 -15 0 -120 53 -127 64 -4 6 -8 7 -8 3 0 -4 -10 -2 -22
5 -13 7 -26 11 -30 10 -5 -1 -8 3 -8 9 0 6 -7 9 -15 5 -9 -3 -15 0 -15 9 0 8
-8 12 -20 10 -11 -2 -20 0 -20 6 0 5 -8 9 -19 9 -10 0 -24 7 -31 15 -7 8 -16
12 -21 10 -4 -3 -12 3 -18 12 -10 17 -10 17 -11 -1 0 -18 -2 -18 -25 4 -16 15
-25 19 -25 10 0 -10 -4 -10 -17 2 -10 9 -29 19 -43 23 -14 4 -37 16 -52 27
-16 11 -28 16 -28 12 0 -3 -6 -2 -12 3 -7 6 -21 9 -30 8 -9 -2 -22 3 -29 11
-6 8 -15 11 -20 8 -5 -3 -9 0 -9 5 0 6 -3 10 -7 9 -5 -1 -32 10 -60 25 -29 15
-55 27 -58 28 -2 0 -22 7 -42 16 -59 24 -88 35 -92 33 -2 -1 -7 2 -10 7 -8 12
-91 45 -91 37 0 -4 -7 0 -16 7 -9 7 -25 15 -37 16 -12 2 -45 15 -75 30 -30 14
-60 26 -68 26 -7 0 -16 7 -18 14 -3 8 -11 11 -16 8 -6 -4 -22 1 -36 10 -13 9
-29 13 -33 10 -5 -3 -11 -1 -13 3 -3 7 -133 66 -148 67 -3 1 -15 6 -27 13 -13
7 -23 10 -23 6 0 -3 -7 -1 -15 6 -8 7 -15 9 -15 5 0 -4 -7 -2 -15 5 -8 7 -15
9 -15 4 0 -5 -4 -4 -8 2 -13 18 -170 87 -182 79 -6 -3 -11 2 -11 12 -1 10 -3
30 -4 44 -4 31 24 47 135 79 41 11 82 24 90 27 43 18 176 61 184 59 5 -1 18
-27 28 -57z m3022 9 c19 -10 19 -12 -8 -33 -21 -17 -27 -29 -25 -56 4 -66 2
-69 -40 -69 -70 0 -97 22 -40 34 28 5 38 31 12 31 -22 0 -24 14 -7 65 l17 52
36 -7 c19 -4 44 -12 55 -17z m771 -103 l-15 -50 6 45 c7 58 17 91 21 70 2 -8
-4 -37 -12 -65z m-3059 33 c9 -18 24 -42 33 -52 9 -11 10 -16 4 -12 -17 9 -17
-38 -2 -83 10 -27 8 -35 -7 -53 l-19 -22 35 22 c19 12 34 25 33 30 -1 4 -5 21
-8 37 -7 28 -7 29 8 10 8 -10 12 -26 9 -35 -4 -13 -2 -12 13 2 17 16 15 19
-29 78 -26 34 -42 59 -36 55 15 -9 90 -112 90 -124 0 -6 -25 -29 -56 -52 l-56
-41 5 -97 c7 -108 2 -104 -12 13 -10 85 -13 91 -52 101 -26 6 -26 5 -33 -54
-8 -67 -21 -82 -22 -26 0 20 -6 41 -12 47 -9 9 -9 3 -2 -22 13 -44 6 -50 -9
-8 -7 18 -21 55 -31 82 l-19 48 40 59 c47 70 98 129 110 129 5 0 16 -15 25
-32z m3590 -19 c3 -5 -1 -9 -8 -9 -7 0 -51 -16 -98 -36 -217 -92 -273 -114
-276 -111 -2 2 48 28 112 57 63 30 119 61 124 70 5 8 10 12 10 7 0 -4 20 3 45
17 43 23 79 25 91 5z m-1585 -135 c-22 -55 -40 -93 -40 -85 -1 16 71 192 77
187 1 -2 -15 -48 -37 -102z m-2393 50 c26 -18 27 -27 6 -49 -13 -12 -19 -13
-24 -5 -4 7 -14 10 -21 8 -8 -3 -22 4 -33 13 -39 37 24 67 72 33z m-87 -43
l24 -19 -28 -11 c-20 -8 -34 -8 -48 -1 -32 18 -22 46 17 49 7 1 22 -8 35 -18z
m3660 -14 c-10 -9 -11 -8 -5 6 3 10 9 15 12 12 3 -3 0 -11 -7 -18z m349 -63
c0 -47 -4 -73 -10 -69 -18 11 -12 145 7 145 2 0 3 -34 3 -76z m-3270 37 c19
-37 13 -50 -25 -47 -19 2 -47 -3 -61 -10 -14 -8 -28 -14 -30 -14 -7 0 -4 76 3
83 3 4 28 7 54 7 38 0 51 -4 59 -19z m196 3 c30 -8 54 -18 54 -21 0 -3 -7 -2
-16 1 -12 5 -15 2 -10 -11 5 -15 4 -15 -9 1 -11 14 -15 16 -15 5 0 -11 -2 -11
-9 -1 -7 11 -9 10 -14 -3 -4 -9 -3 -13 3 -10 6 3 10 2 10 -4 0 -25 -21 -19
-26 8 -4 17 -10 29 -14 26 -4 -3 -10 2 -14 10 -7 19 -6 19 60 -1z m-1558 -24
c-17 -26 -4 -46 34 -54 18 -3 87 -28 153 -54 106 -41 116 -47 86 -50 -23 -2
-37 2 -43 12 -5 9 -48 27 -95 42 -112 34 -115 34 -135 16 -17 -14 -18 -11 -18
51 0 54 3 65 15 61 11 -5 12 -10 3 -24z m4252 15 c0 -6 -108 -55 -119 -55 -8
1 101 59 112 60 4 0 7 -2 7 -5z m-4243 -37 c-3 -8 -6 -5 -6 6 -1 11 2 17 5 13
3 -3 4 -12 1 -19z m3504 -25 c-12 -20 -14 -14 -5 12 4 9 9 14 11 11 3 -2 0
-13 -6 -23z m-3261 -43 c25 -16 4 -11 -54 11 -31 11 -58 25 -61 30 -6 9 83
-23 115 -41z m2788 -19 c-11 -33 -26 -62 -34 -65 -8 -3 -13 -2 -10 2 2 4 16
33 29 65 14 31 28 57 30 57 2 0 -5 -27 -15 -59z m-1971 2 c-3 -10 -5 -2 -5 17
0 19 2 27 5 18 2 -10 2 -26 0 -35z m2600 5 c25 -24 34 -59 9 -39 -10 9 -15 8
-20 -4 -5 -15 -76 -22 -89 -9 -11 11 12 43 41 58 35 19 32 20 59 -6z m-1820
-10 c-3 -8 -6 -5 -6 6 -1 11 2 17 5 13 3 -3 4 -12 1 -19z m-477 8 c0 -3 -4 -8
-10 -11 -5 -3 -10 -1 -10 4 0 6 5 11 10 11 6 0 10 -2 10 -4z m3260 -171 c0
-110 -4 -175 -10 -175 -11 0 -13 12 -10 83 1 32 -2 47 -11 47 -10 0 -10 3 -1
12 13 13 17 178 4 178 -4 0 -64 -23 -133 -51 -110 -46 -205 -79 -219 -78 -12
0 79 43 158 74 48 18 112 45 142 59 30 13 61 25 68 25 9 1 12 -40 12 -174z
m-4498 109 c79 -31 222 -91 318 -134 96 -43 186 -81 200 -85 14 -4 57 -22 95
-40 88 -41 354 -155 361 -155 3 0 53 -24 112 -53 59 -28 125 -60 147 -69 146
-61 248 -103 300 -123 33 -12 86 -34 117 -49 96 -44 107 -47 128 -34 29 18 72
-1 90 -39 17 -35 56 -59 74 -45 16 13 257 -70 244 -84 -6 -5 -118 30 -152 48
-13 7 -16 7 -11 -1 10 -18 142 -81 150 -73 5 4 5 2 1 -5 -3 -6 -2 -14 4 -18
11 -7 14 -164 2 -181 -5 -8 -32 1 -87 27 -44 21 -109 48 -145 60 -46 16 -59
24 -47 28 14 5 -7 18 -74 49 -50 23 -94 40 -97 37 -3 -3 1 -5 8 -5 7 0 11 -3
7 -6 -3 -3 -50 13 -104 36 -101 44 -234 92 -239 87 -2 -1 34 -21 79 -44 114
-58 137 -77 59 -49 -35 12 -67 28 -71 35 -5 7 -10 11 -12 10 -2 -2 -23 8 -47
21 -29 16 -38 26 -30 32 10 6 9 8 -2 8 -9 0 -22 -6 -29 -12 -10 -11 -15 -10
-25 4 -7 10 -17 14 -21 10 -5 -4 -5 1 -2 11 4 11 3 16 -4 12 -5 -4 -16 -2 -24
5 -7 6 -27 13 -44 15 -17 2 -40 9 -51 15 -12 6 -28 9 -36 6 -9 -4 -12 -2 -8 5
4 7 -3 10 -18 7 -14 -1 -32 3 -40 10 -8 7 -41 21 -74 32 -32 11 -61 25 -65 31
-3 6 -12 11 -20 13 -8 1 -23 7 -34 13 -39 21 -146 54 -179 56 -19 1 -34 4 -34
7 1 23 -4 31 -17 26 -17 -6 -65 13 -65 26 0 12 10 10 91 -16 41 -13 87 -27
104 -30 16 -4 67 -25 113 -47 46 -21 88 -39 93 -39 6 0 31 -9 57 -19 26 -11
92 -36 146 -55 55 -20 108 -44 118 -52 9 -9 36 -18 60 -19 35 -2 39 0 25 10
-19 14 -23 35 -6 35 6 0 9 10 7 22 -2 19 -10 23 -45 26 -38 2 -43 0 -43 -18 0
-27 -10 -26 -88 11 -37 17 -88 39 -115 50 -86 34 -152 71 -175 98 -19 21 -21
22 -13 4 l11 -21 -40 19 c-21 10 -46 16 -54 13 -10 -4 -27 6 -46 26 -23 24
-36 31 -55 28 -14 -3 -22 -1 -18 5 3 5 -3 7 -15 3 -21 -7 -74 12 -67 24 2 4
-13 14 -35 23 -22 8 -38 11 -34 6 3 -6 -5 -7 -23 -3 -48 12 -240 82 -282 104
-22 11 -64 25 -93 32 -51 11 -52 11 -25 20 22 8 38 5 80 -15 67 -33 288 -119
292 -115 2 2 -46 26 -108 53 -62 27 -145 64 -185 82 -65 30 -116 51 -187 78
l-20 8 20 -16 c23 -19 5 -23 -27 -6 -17 9 -18 13 -7 21 10 6 7 7 -10 3 -16 -5
-21 -4 -17 4 4 6 2 9 -7 6 -7 -3 -30 1 -50 10 -20 8 -39 15 -42 15 -3 0 -5
-31 -5 -70 0 -40 -4 -70 -10 -70 -6 0 -10 65 -10 175 0 96 2 175 5 175 2 0 69
-25 147 -56z m1055 24 c-3 -8 -6 -5 -6 6 -1 11 2 17 5 13 3 -3 4 -12 1 -19z
m473 -8 c-6 -12 -14 -20 -17 -17 -2 3 1 14 8 26 7 11 15 18 17 16 2 -2 -2 -13
-8 -25z m927 -7 c-3 -10 -5 -4 -5 12 0 17 2 24 5 18 2 -7 2 -21 0 -30z m-750
-5 c-3 -8 -6 -5 -6 6 -1 11 2 17 5 13 3 -3 4 -12 1 -19z m734 -78 c-5 -25 -9
-35 -10 -24 -1 28 11 92 16 79 1 -6 -1 -30 -6 -55z m606 23 c-3 -10 -5 -4 -5
12 0 17 2 24 5 18 2 -7 2 -21 0 -30z m40 15 c-3 -8 -6 -5 -6 6 -1 11 2 17 5
13 3 -3 4 -12 1 -19z m123 4 c0 -5 -7 -17 -15 -28 -14 -18 -14 -17 -4 9 12 27
19 34 19 19z m-2886 -18 c33 -8 104 -35 156 -58 52 -24 108 -48 124 -55 55
-23 20 -20 -74 6 -52 14 -112 34 -132 44 -20 10 -62 28 -92 40 -53 19 -81 39
-56 39 7 0 40 -7 74 -16z m2197 -11 c7 -10 9 -15 5 -11 -5 4 -15 3 -23 -4 -17
-14 -25 -6 -17 16 8 21 18 20 35 -1z m99 -10 c-1 -13 -51 -45 -58 -38 -4 4 4
15 17 26 24 20 41 25 41 12z m302 -10 c18 -16 18 -17 -14 -28 -30 -10 -44 -8
-77 13 -9 5 35 31 53 32 11 0 28 -8 38 -17z m-495 -80 c-3 -10 -5 -4 -5 12 0
17 2 24 5 18 2 -7 2 -21 0 -30z m217 31 c36 -14 4 -54 -43 -54 -26 0 -29 35
-3 49 20 12 25 13 46 5z m203 -10 c10 -27 -13 -39 -42 -20 -14 9 -23 21 -20
26 10 16 55 11 62 -6z m127 7 c3 -4 -4 -17 -16 -27 -14 -12 -18 -14 -13 -4 6
11 3 10 -12 -2 -22 -20 -63 -24 -63 -6 0 23 34 48 66 48 18 0 35 -4 38 -9z
m986 -34 c-8 -7 -37 -23 -65 -34 -27 -12 -81 -36 -120 -53 -38 -17 -77 -33
-85 -35 -8 -2 -53 -19 -99 -39 -47 -20 -86 -34 -88 -32 -4 4 225 108 310 140
34 13 82 33 107 45 53 24 59 26 40 8z m-1543 -54 c-3 -10 -5 -4 -5 12 0 17 2
24 5 18 2 -7 2 -21 0 -30z m-1579 -48 c67 -32 122 -63 122 -68 0 -5 -11 -2
-25 7 -29 19 -272 106 -297 106 -9 0 -20 5 -24 11 -5 8 9 10 47 7 40 -3 88
-20 177 -63z m-815 28 c18 -9 27 -18 20 -20 -12 -4 -73 23 -73 32 0 10 21 5
53 -12z m2384 -45 c-3 -7 -5 -2 -5 12 0 14 2 19 5 13 2 -7 2 -19 0 -25z m283
-38 c-16 -40 -23 -33 -9 9 6 18 14 30 17 27 2 -3 -1 -19 -8 -36z m-293 -27
c-3 -10 -5 -4 -5 12 0 17 2 24 5 18 2 -7 2 -21 0 -30z m-264 -8 c15 -3 27 -10
27 -15 0 -10 -54 -3 -82 11 -9 5 -25 9 -36 9 -11 0 -25 6 -31 14 -10 11 -3 11
41 0 29 -7 65 -16 81 -19z m427 -15 c-3 -27 -10 -53 -14 -57 -9 -8 2 85 11
100 9 14 9 6 3 -43z m50 13 c-11 -17 -11 -17 -6 0 3 10 6 24 7 30 0 9 2 9 5 0
3 -7 0 -20 -6 -30z m-93 -40 c-2 -16 -4 -5 -4 22 0 28 2 40 4 28 2 -13 2 -35
0 -50z m-2236 16 c8 -15 6 -19 -6 -19 -9 0 -13 5 -10 10 3 6 2 10 -3 10 -6 0
-12 7 -15 14 -9 22 21 8 34 -15z m3195 6 c-11 -8 -25 -15 -30 -15 -6 1 0 7 14
15 32 19 40 18 16 0z m-1089 -37 c-3 -7 -5 -2 -5 12 0 14 2 19 5 13 2 -7 2
-19 0 -25z m-1216 2 c35 -11 82 -31 104 -45 51 -32 38 -32 -24 0 -27 13 -69
29 -95 36 -25 6 -49 15 -52 20 -7 12 -5 12 67 -11z m-623 -72 c13 -12 17 -38
4 -38 -15 0 -72 47 -65 54 8 7 42 -2 61 -16z m1563 -29 c-5 -26 -9 -34 -10
-19 -1 27 9 73 15 67 2 -2 0 -23 -5 -48z m-638 -43 c82 -14 157 -45 157 -67 0
-5 10 -10 23 -10 13 -1 16 -3 7 -5 -9 -3 -46 7 -83 21 -78 29 -91 31 -84 11 4
-10 1 -13 -8 -10 -8 3 -11 13 -8 21 4 10 2 14 -5 9 -6 -3 -13 -2 -16 3 -3 5
-21 12 -41 15 -19 4 -37 11 -40 16 -8 13 -7 13 98 -4z m-608 -6 c3 -5 2 -10
-4 -10 -5 0 -13 5 -16 10 -3 6 -2 10 4 10 5 0 13 -4 16 -10z m855 -90 c0 -13
-11 -13 -30 0 -12 8 -11 10 8 10 12 0 22 -4 22 -10z m32 -11 c2 -5 11 -11 20
-13 10 -1 20 -5 24 -8 7 -8 -12 -5 -43 6 -13 4 -23 12 -23 17 0 12 18 11 22
-2z m155 -65 c-3 -3 -12 -4 -19 -1 -8 3 -5 6 6 6 11 1 17 -2 13 -5z m53 -14
c13 -9 13 -10 0 -10 -8 0 -22 5 -30 10 -13 9 -13 10 0 10 8 0 22 -5 30 -10z
m-180 -255 c17 -9 30 -17 30 -19 0 -3 3 -11 6 -20 9 -24 -13 -19 -52 10 -53
41 -42 59 16 29z"/>
<path d="M2788 4563 c7 -3 16 -2 19 1 4 3 -2 6 -13 5 -11 0 -14 -3 -6 -6z"/>
<path d="M2878 4483 c6 -2 18 -2 25 0 6 3 1 5 -13 5 -14 0 -19 -2 -12 -5z"/>
<path d="M3090 4470 c0 -5 4 -10 9 -10 6 0 13 5 16 10 3 6 -1 10 -9 10 -9 0
-16 -4 -16 -10z"/>
<path d="M945 4031 c-33 -21 -68 -59 -63 -69 2 -4 24 14 51 41 26 26 46 47 45
47 -2 0 -16 -9 -33 -19z"/>
<path d="M2515 3560 c-60 -9 -98 -28 -142 -70 -32 -30 -38 -44 -33 -84 1 -10
-2 -16 -7 -13 -5 3 -9 -3 -9 -13 0 -15 3 -17 16 -7 8 6 12 7 7 2 -4 -4 0 -17
10 -27 9 -10 12 -18 7 -18 -5 0 -3 -4 4 -9 10 -6 11 -18 4 -49 -7 -31 -7 -39
3 -36 8 4 14 -14 19 -57 3 -35 9 -65 14 -68 4 -3 7 -13 7 -21 0 -16 60 -60 83
-60 8 0 -4 10 -28 23 -44 23 -72 58 -34 42 67 -28 98 -34 171 -35 46 0 104 6
129 12 l46 13 -5 60 c-2 34 -12 76 -22 95 l-18 35 37 -33 c41 -36 59 -43 31
-12 -10 11 -14 20 -10 20 5 0 -6 16 -25 35 l-34 35 66 0 c45 0 71 5 81 15 8 8
17 11 21 8 3 -4 6 -2 7 3 0 5 2 20 4 34 1 14 -3 35 -9 47 -16 31 -96 89 -153
111 -57 23 -168 33 -238 22z m202 -45 c78 -23 181 -100 162 -120 -3 -3 -26 2
-50 10 -24 9 -90 21 -146 27 -96 11 -145 9 -297 -16 -18 -2 -17 31 1 53 44 54
221 78 330 46z m-145 -242 c39 -35 1 -106 -44 -82 -11 6 -26 8 -33 5 -20 -7
-45 21 -38 42 18 51 77 69 115 35z m152 -76 c28 -38 13 -97 -28 -112 -22 -7
-30 -7 -33 2 -2 7 -10 10 -17 7 -6 -2 -23 7 -36 21 -22 23 -22 25 -4 25 11 0
30 -7 43 -17 l24 -16 -5 66 c-5 63 -5 65 15 58 12 -5 30 -20 41 -34z"/>
<path d="M2710 3040 c-8 -5 -10 -10 -5 -10 6 0 17 5 25 10 8 5 11 10 5 10 -5
0 -17 -5 -25 -10z"/>
<path d="M1762 3165 c15 -16 29 -27 31 -24 3 2 -10 15 -27 28 l-31 24 27 -28z"/>
<path d="M4061 2984 c0 -11 3 -14 6 -6 3 7 2 16 -1 19 -3 4 -6 -2 -5 -13z"/>
<path d="M3588 2823 c6 -2 18 -2 25 0 6 3 1 5 -13 5 -14 0 -19 -2 -12 -5z"/>
<path d="M3658 2813 c6 -2 18 -2 25 0 6 3 1 5 -13 5 -14 0 -19 -2 -12 -5z"/>
<path d="M3711 2806 c2 -2 22 -6 44 -9 28 -5 34 -4 20 3 -19 8 -73 14 -64 6z"/>
<path d="M3558 2753 c6 -2 18 -2 25 0 6 3 1 5 -13 5 -14 0 -19 -2 -12 -5z"/>
<path d="M3645 2741 c77 -16 150 -23 140 -13 -5 6 -48 12 -95 16 -57 3 -72 2
-45 -3z"/>
<path d="M3521 2554 c0 -11 3 -14 6 -6 3 7 2 16 -1 19 -3 4 -6 -2 -5 -13z"/>
<path d="M3532 2510 c0 -14 2 -19 5 -12 2 6 2 18 0 25 -3 6 -5 1 -5 -13z"/>
<path d="M2854 2715 c-12 -8 -25 -11 -29 -7 -5 4 -5 1 -1 -6 14 -24 -62 -45
-169 -47 -55 -1 -103 2 -106 8 -4 6 -13 6 -24 0 -15 -9 -10 -13 30 -27 60 -20
85 -20 159 -1 72 19 111 37 151 70 32 26 23 35 -11 10z"/>
<path d="M4045 2630 c17 -18 27 -21 63 -17 24 3 48 9 53 14 7 7 -7 9 -39 5
-29 -2 -59 1 -73 8 l-24 13 20 -23z"/>
<path d="M4708 2535 c5 -11 12 -27 15 -35 5 -13 6 -13 6 1 1 8 -6 24 -15 35
-15 19 -15 19 -6 -1z"/>
<path d="M4736 2398 c3 -7 16 -21 29 -31 24 -17 25 -17 25 1 0 10 -5 23 -12
30 -16 16 -49 16 -42 0z"/>
<path d="M3930 2321 c0 -6 11 -18 25 -27 22 -14 32 -15 65 -5 58 17 55 26 -6
23 -33 -3 -60 1 -69 8 -10 9 -15 9 -15 1z"/>
<path d="M4790 2265 c0 -23 19 -57 30 -50 11 7 -3 58 -18 63 -7 2 -12 -4 -12
-13z"/>
<path d="M1020 2049 c25 -4 59 -7 75 -7 l30 0 -30 8 c-16 4 -50 8 -75 8 l-45
-1 45 -8z"/>
<path d="M1155 2050 c-27 -12 45 -12 100 -1 38 8 38 9 -20 9 -33 0 -69 -3 -80
-8z"/>
<path d="M3160 2480 c0 -6 5 -20 10 -30 8 -16 8 -18 -5 -14 -12 5 -13 1 -6
-22 5 -16 21 -69 36 -117 21 -73 30 -90 51 -97 14 -6 23 -14 19 -20 -10 -16
56 -200 72 -200 7 0 30 7 49 15 l35 15 -37 67 c-21 38 -41 73 -45 79 -5 6 -27
46 -49 90 -22 43 -32 68 -23 54 36 -51 83 -117 138 -197 31 -46 60 -83 66 -83
5 0 9 2 9 4 0 20 -288 447 -311 461 -5 4 -9 1 -9 -5z m58 -126 c-3 -14 -5 -12
-10 9 -3 19 -2 25 4 19 6 -6 8 -18 6 -28z m9 -46 c-3 -8 -6 -5 -6 6 -1 11 2
17 5 13 3 -3 4 -12 1 -19z m20 -90 c-3 -7 -5 -2 -5 12 0 14 2 19 5 13 2 -7 2
-19 0 -25z"/>
<path d="M3118 2188 c-9 -23 -33 -277 -26 -283 3 -3 52 12 110 32 l105 37 -25
76 c-26 79 -46 110 -70 110 -12 0 -12 3 -1 18 13 15 12 16 -3 4 -9 -8 -26 -11
-36 -8 -17 6 -20 0 -28 -46 l-8 -53 -6 65 c-3 40 -8 58 -12 48z"/>
<path d="M2690 2056 c0 -6 72 -55 125 -85 28 -16 33 -17 18 -4 -30 24 -143 94
-143 89z"/>
<path d="M3370 2371 c0 -12 39 -25 48 -16 7 7 -17 25 -35 25 -7 0 -13 -4 -13
-9z"/>
<path d="M250 1956 c0 -2 8 -10 18 -17 15 -13 16 -12 3 4 -13 16 -21 21 -21
13z"/>
<path d="M605 1922 c6 -5 19 -12 30 -14 13 -2 22 -14 26 -33 6 -29 7 -29 8 -4
1 29 -11 43 -49 54 -17 5 -22 4 -15 -3z"/>
<path d="M1510 1753 c0 -5 19 -29 43 -54 46 -50 40 -37 -11 24 -18 21 -32 34
-32 30z"/>
<path d="M1749 1609 c62 -22 119 -38 125 -36 11 4 -209 78 -228 76 -6 0 40
-18 103 -40z"/>
<path d="M2120 1510 c8 -5 20 -10 25 -10 6 0 3 5 -5 10 -8 5 -19 10 -25 10 -5
0 -3 -5 5 -10z"/>
<path d="M2223 1464 c27 -14 51 -23 54 -21 5 5 -83 47 -96 47 -3 -1 16 -12 42
-26z"/>
<path d="M2111 1444 c0 -11 3 -14 6 -6 3 7 2 16 -1 19 -3 4 -6 -2 -5 -13z"/>
<path d="M2164 1441 c6 -10 109 -61 122 -61 2 0 4 4 4 9 0 7 -32 23 -119 59
-9 3 -12 1 -7 -7z"/>
<path d="M2310 1430 c0 -5 10 -12 23 -15 12 -4 46 -18 76 -32 29 -13 56 -21
59 -18 3 3 3 5 0 5 -3 0 -40 16 -82 35 -42 19 -76 30 -76 25z"/>
<path d="M822 1873 c2 -9 11 -17 20 -19 15 -2 16 1 8 17 -13 23 -33 25 -28 2z"/>
<path d="M3770 1763 c0 -75 4 -82 34 -60 17 12 17 16 -8 73 l-25 59 -1 -72z"/>
<path d="M3600 1716 c0 -3 9 -10 20 -16 11 -6 20 -8 20 -6 0 3 -9 10 -20 16
-11 6 -20 8 -20 6z"/>
<path d="M452 1680 c0 -14 2 -19 5 -12 2 6 2 18 0 25 -3 6 -5 1 -5 -13z"/>
<path d="M1035 1490 c4 -19 11 -39 16 -45 6 -6 7 4 3 25 -4 19 -11 40 -16 45
-7 7 -8 -2 -3 -25z"/>
<path d="M860 1485 c0 -15 18 -40 24 -34 3 3 -1 14 -9 25 -8 10 -14 15 -15 9z"/>
<path d="M890 1484 c0 -3 5 -14 10 -25 16 -28 32 -23 18 6 -10 22 -28 35 -28
19z"/>
<path d="M930 1480 c0 -8 5 -22 10 -30 9 -13 10 -13 10 0 0 8 -5 22 -10 30 -9
13 -10 13 -10 0z"/>
<path d="M950 1483 c0 -4 5 -15 10 -23 8 -13 10 -13 10 2 0 9 -4 20 -10 23 -5
3 -10 3 -10 -2z"/>
<path d="M3690 1356 c0 -9 5 -16 10 -16 6 0 10 4 10 9 0 6 -4 13 -10 16 -5 3
-10 -1 -10 -9z"/>
<path d="M1470 1265 l-1 -30 -14 25 c-17 30 -20 11 -3 -25 6 -14 17 -25 25
-25 15 0 18 47 3 70 -7 12 -10 8 -10 -15z"/>
<path d="M1424 1236 c0 -14 7 -26 14 -26 10 0 10 5 1 23 -16 31 -17 31 -15 3z"/>
<path d="M1501 1244 c0 -11 3 -14 6 -6 3 7 2 16 -1 19 -3 4 -6 -2 -5 -13z"/>
<path d="M1915 1189 c-39 -39 -39 -41 -21 -55 27 -20 95 -19 103 2 3 9 15 19
25 23 19 7 19 9 -7 39 -15 18 -34 32 -44 32 -9 0 -35 -18 -56 -41z m70 11 c4
-6 -5 -10 -21 -10 -26 0 -26 -1 -10 -19 15 -17 15 -19 1 -25 -26 -9 -55 -7
-55 4 0 14 51 59 67 60 6 0 15 -4 18 -10z"/>
<path d="M3406 1143 c-6 -14 -5 -15 5 -6 7 7 10 15 7 18 -3 3 -9 -2 -12 -12z"/>
<path d="M1664 1137 c3 -10 6 -21 6 -23 0 -2 9 -4 19 -4 15 0 18 5 13 23 -5
19 -7 19 -10 4 -4 -18 -4 -18 -19 0 -14 17 -14 17 -9 0z"/>
<path d="M1636 1125 c4 -8 11 -15 16 -15 6 0 5 6 -2 15 -7 8 -14 15 -16 15 -2
0 -1 -7 2 -15z"/>
<path d="M2042 1031 c12 -28 24 -49 26 -46 7 7 -18 73 -33 85 -9 8 -7 -6 7
-39z"/>
<path d="M2010 1056 c0 -12 29 -76 35 -76 3 0 -2 17 -10 37 -16 38 -25 52 -25
39z"/>
<path d="M3490 1780 c0 -11 7 -20 15 -20 8 0 15 6 15 14 0 8 -7 16 -15 20 -10
4 -15 -1 -15 -14z"/>
<path d="M3471 1774 c0 -11 3 -14 6 -6 3 7 2 16 -1 19 -3 4 -6 -2 -5 -13z"/>
<path d="M1282 1585 c0 -16 2 -22 5 -12 2 9 2 23 0 30 -3 6 -5 -1 -5 -18z"/>
<path d="M1136 1545 c4 -8 10 -15 16 -15 5 0 7 -4 4 -8 -2 -4 4 -13 15 -20 10
-7 19 -8 19 -3 0 5 -6 12 -12 14 -10 4 -10 6 0 6 20 2 13 17 -13 29 -33 15
-36 15 -29 -3z"/>
<path d="M1433 1525 c-3 -9 -3 -18 -1 -21 3 -3 8 4 11 16 6 23 -1 27 -10 5z"/>
<path d="M436 1265 c-6 -18 29 -41 39 -25 7 11 -12 40 -25 40 -4 0 -10 -7 -14
-15z"/>
<path d="M890 1076 c0 -9 7 -16 16 -16 9 0 14 5 12 12 -6 18 -28 21 -28 4z"/>
<path d="M1165 870 c3 -5 11 -10 16 -10 6 0 7 5 4 10 -3 6 -11 10 -16 10 -6 0
-7 -4 -4 -10z"/>
<path d="M1386 793 c-13 -13 -5 -30 19 -41 22 -10 25 -9 25 8 0 20 -32 44 -44
33z"/>
<path d="M2106 594 c-9 -23 -8 -31 9 -48 29 -29 65 7 45 45 -13 23 -46 25 -54
3z"/>
<path d="M2230 411 c0 -21 26 -36 36 -20 6 11 -13 39 -27 39 -5 0 -9 -9 -9
-19z"/>
<path d="M2420 267 c34 -15 64 -26 67 -23 2 2 -5 7 -16 11 -11 3 -23 14 -26
24 -4 14 -15 18 -47 17 l-41 -1 63 -28z"/>
<path d="M641 3736 c-7 -8 -8 -17 -3 -20 6 -3 12 3 15 14 6 24 4 25 -12 6z"/>
<path d="M870 3656 c0 -7 -11 -25 -25 -38 -21 -22 -23 -27 -10 -32 9 -3 22
-20 30 -38 l13 -33 13 28 c7 16 24 34 38 41 24 13 24 14 3 20 -11 4 -27 20
-34 36 -14 31 -28 40 -28 16z m25 -37 c4 -13 2 -27 -7 -36 -13 -12 -16 -12
-27 1 -10 11 -9 19 1 35 16 27 25 26 33 0z"/>
<path d="M442 3280 c-22 -29 -22 -31 -5 -55 22 -30 24 -30 46 1 17 22 17 27 4
42 -8 9 -16 23 -18 30 -3 8 -13 2 -27 -18z"/>
<path d="M4431 3288 c-5 -14 -18 -31 -28 -37 -10 -6 -12 -11 -5 -11 7 0 21
-15 32 -32 13 -22 20 -27 20 -15 0 9 9 26 20 37 11 11 16 20 11 20 -5 0 -16
15 -24 32 l-16 33 -10 -27z"/>
<path d="M381 3109 c-24 -32 -28 -69 -7 -69 7 0 25 -9 39 -20 l26 -20 25 25
c30 30 31 32 11 72 -22 44 -67 49 -94 12z m88 -20 c12 -28 11 -32 -9 -54 l-22
-23 -33 21 c-32 20 -46 47 -26 47 5 0 11 9 14 20 4 14 14 20 34 20 22 0 31 -7
42 -31z"/>
</g>
</svg>
